<svg xmlns="http://www.w3.org/2000/svg" viewBox="0 0 1200 760" width="1200" height="760" role="img">
<defs>
<linearGradient id="bg" x1="0" y1="0" x2="1" y2="1">
<stop offset="0" stop-color="#171b22"/><stop offset="0.55" stop-color="#12151b"/><stop offset="1" stop-color="#0c0e13"/>
</linearGradient>
<radialGradient id="glow" cx="0.62" cy="0.4" r="0.7">
<stop offset="0" stop-color="#1f4488" stop-opacity="0.35"/><stop offset="1" stop-color="#1f4488" stop-opacity="0"/>
</radialGradient>
<pattern id="g" width="48" height="48" patternUnits="userSpaceOnUse"><path d="M48 0H0V48" fill="none" stroke="#ffffff" stroke-opacity="0.045" stroke-width="1"/></pattern>
</defs>
<rect width="1200" height="760" fill="url(#bg)"/>
<rect width="1200" height="760" fill="url(#glow)"/>
<rect width="1200" height="760" fill="url(#g)"/>
<path d="M40 720H1160" stroke="#6b7079" stroke-width="2.5"/><path d="M80 720 l-16 16" stroke="#3a4150" stroke-width="1.4" opacity="0.7"/><path d="M114 720 l-16 16" stroke="#3a4150" stroke-width="1.4" opacity="0.7"/><path d="M148 720 l-16 16" stroke="#3a4150" stroke-width="1.4" opacity="0.7"/><path d="M182 720 l-16 16" stroke="#3a4150" stroke-width="1.4" opacity="0.7"/><path d="M216 720 l-16 16" stroke="#3a4150" stroke-width="1.4" opacity="0.7"/><path d="M250 720 l-16 16" stroke="#3a4150" stroke-width="1.4" opacity="0.7"/><path d="M284 720 l-16 16" stroke="#3a4150" stroke-width="1.4" opacity="0.7"/><path d="M318 720 l-16 16" stroke="#3a4150" stroke-width="1.4" opacity="0.7"/><path d="M352 720 l-16 16" stroke="#3a4150" stroke-width="1.4" opacity="0.7"/><path d="M386 720 l-16 16" stroke="#3a4150" stroke-width="1.4" opacity="0.7"/><path d="M420 720 l-16 16" stroke="#3a4150" stroke-width="1.4" opacity="0.7"/><path d="M454 720 l-16 16" stroke="#3a4150" stroke-width="1.4" opacity="0.7"/><path d="M488 720 l-16 16" stroke="#3a4150" stroke-width="1.4" opacity="0.7"/><path d="M522 720 l-16 16" stroke="#3a4150" stroke-width="1.4" opacity="0.7"/><path d="M556 720 l-16 16" stroke="#3a4150" stroke-width="1.4" opacity="0.7"/><path d="M590 720 l-16 16" stroke="#3a4150" stroke-width="1.4" opacity="0.7"/><path d="M624 720 l-16 16" stroke="#3a4150" stroke-width="1.4" opacity="0.7"/><path d="M658 720 l-16 16" stroke="#3a4150" stroke-width="1.4" opacity="0.7"/><path d="M692 720 l-16 16" stroke="#3a4150" stroke-width="1.4" opacity="0.7"/><path d="M726 720 l-16 16" stroke="#3a4150" stroke-width="1.4" opacity="0.7"/><path d="M760 720 l-16 16" stroke="#3a4150" stroke-width="1.4" opacity="0.7"/><path d="M794 720 l-16 16" stroke="#3a4150" stroke-width="1.4" opacity="0.7"/><path d="M828 720 l-16 16" stroke="#3a4150" stroke-width="1.4" opacity="0.7"/><path d="M862 720 l-16 16" stroke="#3a4150" stroke-width="1.4" opacity="0.7"/><path d="M896 720 l-16 16" stroke="#3a4150" stroke-width="1.4" opacity="0.7"/><path d="M930 720 l-16 16" stroke="#3a4150" stroke-width="1.4" opacity="0.7"/><path d="M964 720 l-16 16" stroke="#3a4150" stroke-width="1.4" opacity="0.7"/><path d="M998 720 l-16 16" stroke="#3a4150" stroke-width="1.4" opacity="0.7"/><path d="M1032 720 l-16 16" stroke="#3a4150" stroke-width="1.4" opacity="0.7"/><path d="M1066 720 l-16 16" stroke="#3a4150" stroke-width="1.4" opacity="0.7"/><path d="M1100 720 l-16 16" stroke="#3a4150" stroke-width="1.4" opacity="0.7"/><path d="M1134 720 l-16 16" stroke="#3a4150" stroke-width="1.4" opacity="0.7"/><circle cx="470" cy="470" r="150" fill="none" stroke="#aab2bd" stroke-width="5"/><path d="M620 470L646 470" stroke="#aab2bd" stroke-width="6" stroke-linecap="round"/><path d="M613 516L637 524" stroke="#aab2bd" stroke-width="6" stroke-linecap="round"/><path d="M591 558L612 573" stroke="#aab2bd" stroke-width="6" stroke-linecap="round"/><path d="M558 591L573 612" stroke="#aab2bd" stroke-width="6" stroke-linecap="round"/><path d="M516 613L524 637" stroke="#aab2bd" stroke-width="6" stroke-linecap="round"/><path d="M470 620L470 646" stroke="#aab2bd" stroke-width="6" stroke-linecap="round"/><path d="M424 613L416 637" stroke="#aab2bd" stroke-width="6" stroke-linecap="round"/><path d="M382 591L367 612" stroke="#aab2bd" stroke-width="6" stroke-linecap="round"/><path d="M349 558L328 573" stroke="#aab2bd" stroke-width="6" stroke-linecap="round"/><path d="M327 516L303 524" stroke="#aab2bd" stroke-width="6" stroke-linecap="round"/><path d="M320 470L294 470" stroke="#aab2bd" stroke-width="6" stroke-linecap="round"/><path d="M327 424L303 416" stroke="#aab2bd" stroke-width="6" stroke-linecap="round"/><path d="M349 382L328 367" stroke="#aab2bd" stroke-width="6" stroke-linecap="round"/><path d="M382 349L367 328" stroke="#aab2bd" stroke-width="6" stroke-linecap="round"/><path d="M424 327L416 303" stroke="#aab2bd" stroke-width="6" stroke-linecap="round"/><path d="M470 320L470 294" stroke="#aab2bd" stroke-width="6" stroke-linecap="round"/><path d="M516 327L524 303" stroke="#aab2bd" stroke-width="6" stroke-linecap="round"/><path d="M558 349L573 328" stroke="#aab2bd" stroke-width="6" stroke-linecap="round"/><path d="M591 382L612 367" stroke="#aab2bd" stroke-width="6" stroke-linecap="round"/><path d="M613 424L637 416" stroke="#aab2bd" stroke-width="6" stroke-linecap="round"/><circle cx="470" cy="470" r="44" fill="none" stroke="#3f6fc0" stroke-width="5"/><path d="M470 294v-120" fill="none" stroke="#aab2bd" stroke-width="4" stroke-linejoin="round" stroke-linecap="round" /><rect x="400" y="170" width="140" height="50" rx="6" fill="#20242c" stroke="#3f6fc0" stroke-width="5"/><path d="M320 760h300" stroke="#3f6fc0" stroke-width="1.4" opacity="0.8"/><path d="M320 754v12M620 754v12" stroke="#3f6fc0" stroke-width="1.4" opacity="0.8"/><text x="470" y="750" text-anchor="middle" fill="#3f6fc0" font-family="Arial" font-size="14" opacity="0.9">Ø 800 mm · m16</text>
<path d="M26 26h18M26 26v18" stroke="#6b7079" stroke-width="2" stroke-linecap="round" opacity="0.8"/><path d="M1174 26h-18M1174 26v18" stroke="#6b7079" stroke-width="2" stroke-linecap="round" opacity="0.8"/><path d="M26 734h18M26 734v-18" stroke="#6b7079" stroke-width="2" stroke-linecap="round" opacity="0.8"/><path d="M1174 734h-18M1174 734v-18" stroke="#6b7079" stroke-width="2" stroke-linecap="round" opacity="0.8"/><text x="32" y="36" fill="#6b7079" font-family="Arial" font-size="15" letter-spacing="3" opacity="0.85">BORSAN TEKNOLOJİ</text><text x="1168" y="36" text-anchor="end" fill="#3f6fc0" font-family="Arial" font-size="15" font-weight="700" letter-spacing="1">GP</text><text x="32" y="730" fill="#aab2bd" font-family="Arial" font-size="22" font-weight="700" letter-spacing="1">DİŞLİ PROFİL TAŞLAMA</text>
</svg>