<svg xmlns="http://www.w3.org/2000/svg" viewBox="0 0 1200 900" width="1200" height="900" role="img">
<defs>
<linearGradient id="bg" x1="0" y1="0" x2="1" y2="1">
<stop offset="0" stop-color="#171b22"/><stop offset="0.55" stop-color="#12151b"/><stop offset="1" stop-color="#0c0e13"/>
</linearGradient>
<radialGradient id="glow" cx="0.62" cy="0.4" r="0.7">
<stop offset="0" stop-color="#1f4488" stop-opacity="0.35"/><stop offset="1" stop-color="#1f4488" stop-opacity="0"/>
</radialGradient>
<pattern id="g" width="48" height="48" patternUnits="userSpaceOnUse"><path d="M48 0H0V48" fill="none" stroke="#ffffff" stroke-opacity="0.045" stroke-width="1"/></pattern>
</defs>
<rect width="1200" height="900" fill="url(#bg)"/>
<rect width="1200" height="900" fill="url(#glow)"/>
<rect width="1200" height="900" fill="url(#g)"/>
<path d="M40 720H1160" stroke="#6b7079" stroke-width="2.5"/><path d="M80 720 l-16 16" stroke="#3a4150" stroke-width="1.4" opacity="0.7"/><path d="M114 720 l-16 16" stroke="#3a4150" stroke-width="1.4" opacity="0.7"/><path d="M148 720 l-16 16" stroke="#3a4150" stroke-width="1.4" opacity="0.7"/><path d="M182 720 l-16 16" stroke="#3a4150" stroke-width="1.4" opacity="0.7"/><path d="M216 720 l-16 16" stroke="#3a4150" stroke-width="1.4" opacity="0.7"/><path d="M250 720 l-16 16" stroke="#3a4150" stroke-width="1.4" opacity="0.7"/><path d="M284 720 l-16 16" stroke="#3a4150" stroke-width="1.4" opacity="0.7"/><path d="M318 720 l-16 16" stroke="#3a4150" stroke-width="1.4" opacity="0.7"/><path d="M352 720 l-16 16" stroke="#3a4150" stroke-width="1.4" opacity="0.7"/><path d="M386 720 l-16 16" stroke="#3a4150" stroke-width="1.4" opacity="0.7"/><path d="M420 720 l-16 16" stroke="#3a4150" stroke-width="1.4" opacity="0.7"/><path d="M454 720 l-16 16" stroke="#3a4150" stroke-width="1.4" opacity="0.7"/><path d="M488 720 l-16 16" stroke="#3a4150" stroke-width="1.4" opacity="0.7"/><path d="M522 720 l-16 16" stroke="#3a4150" stroke-width="1.4" opacity="0.7"/><path d="M556 720 l-16 16" stroke="#3a4150" stroke-width="1.4" opacity="0.7"/><path d="M590 720 l-16 16" stroke="#3a4150" stroke-width="1.4" opacity="0.7"/><path d="M624 720 l-16 16" stroke="#3a4150" stroke-width="1.4" opacity="0.7"/><path d="M658 720 l-16 16" stroke="#3a4150" stroke-width="1.4" opacity="0.7"/><path d="M692 720 l-16 16" stroke="#3a4150" stroke-width="1.4" opacity="0.7"/><path d="M726 720 l-16 16" stroke="#3a4150" stroke-width="1.4" opacity="0.7"/><path d="M760 720 l-16 16" stroke="#3a4150" stroke-width="1.4" opacity="0.7"/><path d="M794 720 l-16 16" stroke="#3a4150" stroke-width="1.4" opacity="0.7"/><path d="M828 720 l-16 16" stroke="#3a4150" stroke-width="1.4" opacity="0.7"/><path d="M862 720 l-16 16" stroke="#3a4150" stroke-width="1.4" opacity="0.7"/><path d="M896 720 l-16 16" stroke="#3a4150" stroke-width="1.4" opacity="0.7"/><path d="M930 720 l-16 16" stroke="#3a4150" stroke-width="1.4" opacity="0.7"/><path d="M964 720 l-16 16" stroke="#3a4150" stroke-width="1.4" opacity="0.7"/><path d="M998 720 l-16 16" stroke="#3a4150" stroke-width="1.4" opacity="0.7"/><path d="M1032 720 l-16 16" stroke="#3a4150" stroke-width="1.4" opacity="0.7"/><path d="M1066 720 l-16 16" stroke="#3a4150" stroke-width="1.4" opacity="0.7"/><path d="M1100 720 l-16 16" stroke="#3a4150" stroke-width="1.4" opacity="0.7"/><path d="M1134 720 l-16 16" stroke="#3a4150" stroke-width="1.4" opacity="0.7"/><rect x="150" y="470" width="150" height="130" rx="6" fill="none" stroke="#aab2bd" stroke-width="4"/><circle cx="300" cy="535" r="30" fill="none" stroke="#5a86d0" stroke-width="5"/><rect x="300" y="525" width="360" height="20" rx="6" fill="#20242c" stroke="#6b7079" stroke-width="4"/><rect x="648" y="505" width="44" height="60" rx="6" fill="none" stroke="#5a86d0" stroke-width="5"/><rect x="560" y="360" width="180" height="70" rx="6" fill="none" stroke="#aab2bd" stroke-width="4"/><path d="M600 430v34M650 430v34M700 430v34" fill="none" stroke="#5a86d0" stroke-width="5" stroke-linejoin="round" stroke-linecap="round" /><rect x="770" y="480" width="150" height="110" rx="6" fill="none" stroke="#aab2bd" stroke-width="4"/><circle cx="770" cy="535" r="24" fill="none" stroke="#5a86d0" stroke-width="5"/><rect x="940" y="520" width="70" height="50" rx="6" fill="none" stroke="#aab2bd" stroke-width="4"/><path d="M180 600v60M880 590v70" fill="none" stroke="#aab2bd" stroke-width="5" stroke-linejoin="round" stroke-linecap="round" /><path d="M150 760h770" stroke="#3f6fc0" stroke-width="1.4" opacity="0.8"/><path d="M150 754v12M920 754v12" stroke="#3f6fc0" stroke-width="1.4" opacity="0.8"/><text x="535" y="750" text-anchor="middle" fill="#3f6fc0" font-family="Arial" font-size="14" opacity="0.9">Ø 20 mm · 7 eksen</text>
<path d="M26 26h18M26 26v18" stroke="#6b7079" stroke-width="2" stroke-linecap="round" opacity="0.8"/><path d="M1174 26h-18M1174 26v18" stroke="#6b7079" stroke-width="2" stroke-linecap="round" opacity="0.8"/><path d="M26 874h18M26 874v-18" stroke="#6b7079" stroke-width="2" stroke-linecap="round" opacity="0.8"/><path d="M1174 874h-18M1174 874v-18" stroke="#6b7079" stroke-width="2" stroke-linecap="round" opacity="0.8"/><text x="32" y="36" fill="#6b7079" font-family="Arial" font-size="15" letter-spacing="3" opacity="0.85">BORSAN TEKNOLOJİ</text><text x="1168" y="36" text-anchor="end" fill="#3f6fc0" font-family="Arial" font-size="15" font-weight="700" letter-spacing="1">BT-SW20</text>
</svg>